<?xml version="1.0" standalone="no"?>
<!DOCTYPE svg PUBLIC "-//W3C//DTD SVG 20010904//EN"
 "http://www.w3.org/TR/2001/REC-SVG-20010904/DTD/svg10.dtd">
<svg version="1.0" xmlns="http://www.w3.org/2000/svg"
 width="540.000000pt" height="540.000000pt" viewBox="0 0 540.000000 540.000000"
 preserveAspectRatio="xMidYMid meet">
<metadata>
Created by potrace 1.11, written by Peter Selinger 2001-2013
</metadata>
<g transform="translate(0.000000,540.000000) scale(0.100000,-0.100000)"
fill="#000000" stroke="none">
<path d="M2232 4937 c-44 -25 -68 -82 -78 -187 -19 -207 -102 -412 -186 -460
-25 -13 -29 -13 -55 6 -16 12 -52 67 -84 128 -56 107 -56 108 -56 194 1 194
-92 334 -194 292 -44 -19 -57 -54 -60 -161 -2 -105 -10 -139 -46 -187 -33 -44
-48 -30 -57 51 -13 117 -72 197 -145 197 -70 0 -115 -61 -110 -147 3 -40 -10
-127 -17 -120 -3 3 -7 36 -10 73 -8 95 -20 138 -50 173 -49 59 -127 64 -183
11 -36 -35 -39 -50 -46 -240 -5 -148 -8 -174 -27 -245 -9 -36 -44 -115 -51
-115 -2 0 -21 9 -42 20 -22 12 -54 20 -72 18 -28 -2 -36 4 -64 42 -71 101
-127 140 -199 140 -117 0 -173 -112 -123 -246 22 -56 74 -137 161 -246 77 -98
94 -125 90 -151 -3 -19 -8 -21 -48 -18 -61 4 -115 24 -196 71 -90 52 -157 68
-207 47 -71 -30 -96 -116 -56 -197 45 -93 199 -192 349 -226 86 -19 267 -24
422 -11 56 5 122 6 146 2 l45 -7 -31 -27 c-16 -15 -52 -45 -78 -67 -27 -21
-55 -45 -62 -52 -21 -19 -250 -174 -319 -216 -153 -91 -255 -279 -248 -454 7
-162 76 -298 171 -338 76 -32 201 -11 243 40 7 9 17 13 22 10 6 -3 32 -8 59
-11 81 -9 113 9 224 123 115 117 154 144 211 144 59 0 219 46 286 81 31 17 78
51 103 76 l45 46 98 -32 c54 -17 161 -44 238 -60 125 -26 151 -35 243 -86 56
-31 104 -61 107 -65 3 -5 7 -30 9 -57 8 -85 41 -137 135 -210 20 -16 24 -30
27 -89 2 -39 6 -86 10 -105 4 -19 8 -122 8 -229 1 -222 9 -250 86 -334 l40
-44 -15 -99 c-43 -287 -99 -466 -163 -521 -15 -13 -48 -41 -74 -63 -51 -44
-65 -78 -48 -119 18 -44 45 -51 191 -52 141 -1 170 6 189 43 6 11 15 17 19 15
12 -8 50 23 66 53 8 16 17 66 20 112 3 46 8 102 10 124 7 71 18 160 21 175 1
8 3 21 3 29 1 8 24 -21 52 -64 53 -82 79 -109 116 -125 11 -5 34 -26 49 -47
57 -78 129 -138 231 -192 53 -27 123 8 123 64 0 28 -94 291 -112 313 -7 8 -22
18 -35 23 -13 5 -23 16 -23 24 0 35 -33 77 -85 106 -53 30 -108 86 -193 198
-42 54 -43 58 -38 116 3 34 24 114 49 185 25 71 47 153 51 190 3 36 11 95 18
132 l11 67 46 -7 c59 -9 361 -9 426 0 207 30 408 103 543 197 32 23 61 41 64
41 4 0 6 -51 5 -112 l-1 -113 59 -100 c138 -236 141 -285 32 -515 -46 -95
-128 -235 -185 -313 -39 -53 -65 -108 -77 -161 -8 -38 -59 -112 -104 -150
-100 -86 -113 -101 -116 -138 -3 -29 2 -42 22 -62 23 -24 34 -26 112 -27 239
-3 256 3 256 92 0 52 1 54 30 56 42 3 75 44 75 92 0 44 42 134 110 236 94 142
168 262 209 340 50 96 52 99 118 153 67 56 88 107 79 194 l-7 63 42 -50 c24
-27 69 -76 102 -109 l59 -58 13 -97 c8 -64 12 -192 11 -381 -2 -249 -5 -290
-20 -322 -11 -22 -28 -40 -44 -46 -15 -5 -57 -38 -94 -74 -57 -53 -68 -69 -68
-96 0 -41 38 -82 77 -83 15 0 73 -1 128 -2 161 -4 195 14 195 104 0 44 1 46
29 47 75 2 109 59 90 150 -10 50 -8 194 6 297 2 17 6 62 9 100 6 69 41 357 54
445 10 66 7 149 -7 198 -9 30 -29 58 -72 99 -158 151 -154 289 19 653 28 58
55 124 61 148 7 23 16 42 21 42 20 0 43 66 44 125 3 189 -223 388 -559 493
-55 17 -136 43 -180 57 -189 62 -207 64 -395 60 -96 -3 -188 -7 -205 -10 -80
-13 -393 -14 -465 0 -178 34 -314 98 -481 231 -90 70 -169 112 -228 120 -83
11 -103 11 -148 3 -71 -14 -143 -52 -203 -109 -93 -87 -157 -125 -277 -164
-113 -37 -115 -34 -36 44 189 187 361 442 449 667 50 127 97 327 91 386 -8 84
-89 142 -154 111 -40 -20 -60 -58 -73 -138 -6 -38 -18 -82 -26 -98 -19 -36
-93 -118 -106 -118 -6 0 -7 17 -3 42 12 71 7 186 -10 237 -18 56 -72 111 -108
111 -12 -1 -32 -6 -45 -13z"/>
<path d="M3791 511 c-23 -15 -5 -42 26 -39 16 1 38 -2 50 -6 16 -5 28 -1 44
15 l22 22 -5 -27 c-4 -20 -2 -24 7 -16 7 6 15 18 17 28 7 27 -62 24 -73 -3 -7
-19 -8 -19 -8 3 -1 26 -13 28 -35 7 -17 -17 -32 -19 -41 -5 -3 6 4 14 17 19
13 6 16 10 8 10 -8 0 -21 -3 -29 -8z"/>
<path d="M3976 505 c-22 -22 -20 -30 6 -32 13 -1 24 -7 26 -12 4 -12 42 4 54
23 5 7 8 7 8 1 0 -6 8 -11 18 -12 11 -1 17 6 18 23 1 13 -2 24 -7 24 -5 0 -9
-7 -9 -16 0 -14 -2 -14 -16 1 -10 9 -20 13 -23 8 -9 -12 -45 -13 -52 -2 -4 7
-13 4 -23 -6z m54 -15 c0 -5 -5 -10 -11 -10 -5 0 -7 5 -4 10 3 6 8 10 11 10 2
0 4 -4 4 -10z"/>
<path d="M4132 493 c-1 -22 0 -25 8 -13 8 12 12 13 19 2 6 -10 10 -7 13 12 5
26 -6 36 -15 14 -4 -10 -6 -10 -6 0 -2 24 -17 12 -19 -15z"/>
<path d="M4455 500 c-34 -22 -59 -27 -31 -7 17 12 13 14 -30 15 -27 0 -54 -4
-61 -9 -7 -7 -14 -6 -18 1 -8 14 -25 3 -25 -16 0 -19 40 -15 58 6 10 13 11 13
6 -2 -3 -10 -1 -18 5 -18 6 0 11 8 12 18 0 14 2 14 9 -3 6 -13 9 -15 9 -5 1
12 3 12 10 2 4 -8 17 -12 27 -11 11 2 25 0 32 -4 8 -6 15 1 22 19 14 35 10 37
-25 14z"/>
<path d="M4558 500 c-15 -17 -15 -19 -1 -25 9 -3 20 0 25 7 6 11 10 10 17 0 6
-11 10 -10 15 3 8 23 8 27 -4 20 -5 -3 -10 -1 -10 4 0 17 -23 11 -42 -9z"/>
<path d="M4751 513 c-1 -6 -4 -18 -7 -27 -5 -12 2 -15 33 -14 21 1 41 6 45 12
5 8 8 7 8 -1 0 -7 12 -13 26 -13 20 0 25 4 20 16 -3 8 -2 12 4 9 6 -3 10 1 10
11 0 12 -3 14 -12 6 -7 -5 -26 -9 -43 -8 -16 1 -36 -3 -42 -8 -8 -5 -13 -4
-13 3 0 7 -4 10 -9 7 -5 -4 -12 0 -14 6 -4 9 -6 9 -6 1z"/>
<path d="M4187 503 c-18 -17 -4 -31 33 -31 24 -1 40 4 40 11 0 7 4 6 11 -3 8
-12 10 -12 7 5 -3 21 -48 35 -48 15 0 -6 5 -8 10 -5 6 3 10 1 10 -4 0 -16 -16
-13 -30 4 -14 16 -23 19 -33 8z"/>
<path d="M4493 494 c-7 -19 2 -28 22 -21 19 8 19 23 0 31 -9 3 -18 -1 -22 -10z"/>
<path d="M4637 499 c-24 -14 -12 -29 24 -29 24 0 29 4 29 23 -1 21 -1 21 -14
4 -12 -15 -15 -16 -18 -3 -2 11 -7 12 -21 5z"/>
<path d="M4707 503 c-13 -13 -7 -33 11 -33 14 0 15 2 2 10 -10 6 -11 10 -2 10
6 0 12 5 12 10 0 11 -13 13 -23 3z"/>
<path d="M4916 503 c-18 -18 -3 -32 34 -31 32 0 40 4 40 19 0 20 -15 26 -25 9
-4 -7 -12 -7 -24 0 -10 5 -21 6 -25 3z m31 -19 c-3 -3 -12 -4 -19 -1 -8 3 -5
6 6 6 11 1 17 -2 13 -5z"/>
<path d="M5001 488 c0 -22 1 -22 9 -3 8 19 9 19 9 1 1 -15 4 -16 15 -7 11 9
15 9 20 -1 3 -7 5 -4 3 6 -1 13 -11 21 -29 23 -24 3 -28 0 -27 -19z"/>
</g>
</svg>
